<svg xmlns="http://www.w3.org/2000/svg" xmlns:xlink="http://www.w3.org/1999/xlink" width="24" height="24" version="1.1" viewBox="0 0 24 24"><title>icon-tab-statistics-green</title><desc>Created with Sketch.</desc><g id="icon-tab-statistics-green" fill="none" fill-rule="evenodd" stroke="none" stroke-width="1"><path id="Fill-44" fill="#1AAD16" d="M8,23 L2.463,23 C1.655,23 1,22.345 1,21.537 L1,14.463 C1,13.655 1.655,13 2.463,13 L7,13 L7,14.4 L8,21.6 L8,23 Z"/><path id="Fill-45" fill="#888" d="M8.4003,19 L7.0003,19 L7.0003,21.537 C7.0003,22.345 7.6543,23 8.4623,23 L16.0003,23 L16.0003,21.6 L8.4003,21.6 L8.4003,19 Z"/><path id="Fill-46" fill="#1AAD16" d="M8.4628,6 C7.6548,6 6.9998,6.655 6.9998,7.463 L6.9998,23 L13.9998,23 L13.9998,7.4 L13.9998,6 L8.4628,6 Z"/><path id="Fill-49" fill="#1AAD19" d="M15.4057,1 C14.6297,1 13.9997,1.629 13.9997,2.406 L13.9997,10 L13.9997,12 L13.9997,21.594 C13.9997,22.371 14.6297,23 15.4057,23 L21.5937,23 C22.3707,23 22.9997,22.371 22.9997,21.594 L22.9997,2.406 C22.9997,1.629 22.3707,1 21.5937,1 L15.4057,1 Z"/><rect id="Rectangle" width="1.4" height="17" x="12.6" y="6" fill="#FFF"/><polygon id="Rectangle-Copy" fill="#FFF" points="5.6 13 7 13 7 23 5.6 23"/></g></svg>