<svg xmlns="http://www.w3.org/2000/svg" xmlns:xlink="http://www.w3.org/1999/xlink" width="24" height="24" version="1.1" viewBox="0 0 24 24"><title>icon-tab-function</title><desc>Created with Sketch.</desc><g id="icon-tab-function" fill="none" fill-rule="evenodd" stroke="none" stroke-width="1"><path id="Fill-30" fill="#888" d="M11.998,0 C5.372,0 0,5.372 0,11.998 C0,18.624 5.372,23.996 11.998,23.996 C18.624,23.996 23.996,18.624 23.996,11.998 C23.996,5.372 18.624,0 11.998,0 M11.998,1.4 C17.841,1.4 22.596,6.154 22.596,11.998 C22.596,17.841 17.841,22.596 11.998,22.596 C6.154,22.596 1.4,17.841 1.4,11.998 C1.4,6.154 6.154,1.4 11.998,1.4"/><polygon id="Fill-31" fill="#888" points="9.969 18.471 5.369 15.815 5.369 8.194 9.969 5.538 9.969 3.922 3.969 7.386 3.969 16.623 9.969 20.087"/><polygon id="Fill-32" fill="#888" points="13.969 3.922 13.969 5.539 18.569 8.194 18.569 15.816 13.969 18.471 13.969 20.088 19.969 16.624 19.969 7.386"/><polygon id="Fill-33" fill="#888" points="11.369 16.996 9.969 16.996 12.568 6.996 13.969 6.996"/></g></svg>