<svg xmlns="http://www.w3.org/2000/svg" xmlns:xlink="http://www.w3.org/1999/xlink" width="43" height="10" version="1.1" viewBox="0 0 43 10"><title>Fill 43</title><desc>Created with Sketch.</desc><g id="Page-2" fill="none" fill-rule="evenodd" stroke="none" stroke-width="1"><g id="转载文章-copy-30" fill="#FFF" transform="translate(-679.000000, -80.000000)"><g id="Navigation-/-6-/-Nav-with-..."><path id="Fill-43" d="M689,85 C689,87.761 686.761,90 684,90 C681.239,90 679,87.761 679,85 C679,82.238 681.239,80 684,80 C686.761,80 689,82.238 689,85 Z M700,80 C702.761,80 705,82.238 705,85 C705,87.761 702.761,90 700,90 C697.239,90 695,87.761 695,85 C695,82.238 697.239,80 700,80 Z M717,80 C719.761,80 722,82.238 722,85 C722,87.761 719.761,90 717,90 C714.239,90 712,87.761 712,85 C712,82.238 714.239,80 717,80 Z"/></g></g></g></svg>