<svg xmlns="http://www.w3.org/2000/svg" xmlns:xlink="http://www.w3.org/1999/xlink" width="54" height="53" version="1.1" viewBox="0 0 54 53"><title>Fill 56</title><desc>Created with Sketch.</desc><g id="图标" fill="none" fill-rule="evenodd" stroke="none" stroke-width="1"><g id="Action_Share@2x" fill="#1AAD19" fill-rule="nonzero" transform="translate(-33.000000, -34.000000)"><path id="Fill-56" d="M41.7549893,70.1242873 C41.7550048,70.1242873 41.5577166,43.6790528 73,43.3216848 L73,35.4036492 C73,34.2932484 73.6038873,34.0574016 74.34882,34.8747684 L86.1266687,47.7978451 C86.8719244,48.6155663 86.8946488,49.9549694 86.1781464,50.7902771 L74.2973423,64.6410729 C73.5853848,65.4710822 73,65.2568387 73,64.1507123 L73,55.2339526 C43.229888,55.4065816 41.7550048,70.1242873 41.7549893,70.1242873 Z M86,87 L33,87 L33,67.9918031 C33,67.4440454 33.4437166,67 33.9998075,67 L37.0001925,67 C37.5523709,67 38,67.4489202 38,68.007484 L38,82 L81,82 L81,68.007484 C81,67.4510659 81.4437166,67 81.9998075,67 L85.0001925,67 C85.5523709,67 86,67.4553056 86,67.9918031 L86,87 Z"/></g></g></svg>