<svg xmlns="http://www.w3.org/2000/svg" xmlns:xlink="http://www.w3.org/1999/xlink" width="56" height="56" version="1.1" viewBox="0 0 56 56"><title>Group</title><desc>Created with Sketch.</desc><defs><linearGradient id="linearGradient-1" x1="50%" x2="50%" y1="0%" y2="100%"><stop offset="3.611%" stop-color="#7283D8"/><stop offset="100%" stop-color="#7081D5"/></linearGradient><circle id="path-2" cx="24" cy="24" r="24"/><filter id="filter-3" width="133.3%" height="133.3%" x="-16.7%" y="-10.4%" filterUnits="objectBoundingBox"><feMorphology in="SourceAlpha" operator="dilate" radius="1.5" result="shadowSpreadOuter1"/><feOffset dx="0" dy="2" in="shadowSpreadOuter1" result="shadowOffsetOuter1"/><feGaussianBlur in="shadowOffsetOuter1" result="shadowBlurOuter1" stdDeviation="1.5"/><feComposite in="shadowBlurOuter1" in2="SourceAlpha" operator="out" result="shadowBlurOuter1"/><feColorMatrix in="shadowBlurOuter1" result="shadowMatrixOuter1" type="matrix" values="0 0 0 0 0 0 0 0 0 0 0 0 0 0 0 0 0 0 0.04 0"/><feMorphology in="SourceAlpha" operator="dilate" radius="1.5" result="shadowSpreadOuter2"/><feOffset dx="0" dy="1" in="shadowSpreadOuter2" result="shadowOffsetOuter2"/><feGaussianBlur in="shadowOffsetOuter2" result="shadowBlurOuter2" stdDeviation=".5"/><feComposite in="shadowBlurOuter2" in2="SourceAlpha" operator="out" result="shadowBlurOuter2"/><feColorMatrix in="shadowBlurOuter2" result="shadowMatrixOuter2" type="matrix" values="0 0 0 0 0 0 0 0 0 0 0 0 0 0 0 0 0 0 0.06 0"/><feMerge><feMergeNode in="shadowMatrixOuter1"/><feMergeNode in="shadowMatrixOuter2"/></feMerge></filter><filter id="filter-4" width="122.9%" height="122.9%" x="-11.5%" y="-5.2%" filterUnits="objectBoundingBox"><feOffset dx="0" dy="0" in="SourceAlpha" result="shadowOffsetInner1"/><feComposite in="shadowOffsetInner1" in2="SourceAlpha" k2="-1" k3="1" operator="arithmetic" result="shadowInnerInner1"/><feColorMatrix in="shadowInnerInner1" type="matrix" values="0 0 0 0 1 0 0 0 0 1 0 0 0 0 1 0 0 0 0.197322237 0"/></filter><linearGradient id="linearGradient-5" x1="50%" x2="50%" y1="0%" y2="100%"><stop offset="0%" stop-color="#FFF"/><stop offset="100%" stop-color="#F5F8FD"/></linearGradient><circle id="path-6" cx="24" cy="24" r="22.5"/><filter id="filter-7" width="131.1%" height="131.1%" x="-15.6%" y="-8.9%" filterUnits="objectBoundingBox"><feMorphology in="SourceAlpha" operator="dilate" radius=".5" result="shadowSpreadOuter1"/><feOffset dx="0" dy="2" in="shadowSpreadOuter1" result="shadowOffsetOuter1"/><feGaussianBlur in="shadowOffsetOuter1" result="shadowBlurOuter1" stdDeviation="1.5"/><feComposite in="shadowBlurOuter1" in2="SourceAlpha" operator="out" result="shadowBlurOuter1"/><feColorMatrix in="shadowBlurOuter1" result="shadowMatrixOuter1" type="matrix" values="0 0 0 0 0 0 0 0 0 0 0 0 0 0 0 0 0 0 0.04 0"/><feMorphology in="SourceAlpha" operator="dilate" radius=".5" result="shadowSpreadOuter2"/><feOffset dx="0" dy="1" in="shadowSpreadOuter2" result="shadowOffsetOuter2"/><feGaussianBlur in="shadowOffsetOuter2" result="shadowBlurOuter2" stdDeviation=".5"/><feComposite in="shadowBlurOuter2" in2="SourceAlpha" operator="out" result="shadowBlurOuter2"/><feColorMatrix in="shadowBlurOuter2" result="shadowMatrixOuter2" type="matrix" values="0 0 0 0 0 0 0 0 0 0 0 0 0 0 0 0 0 0 0.06 0"/><feMerge><feMergeNode in="shadowMatrixOuter1"/><feMergeNode in="shadowMatrixOuter2"/></feMerge></filter><filter id="filter-8" width="124.4%" height="124.4%" x="-12.2%" y="-5.6%" filterUnits="objectBoundingBox"><feGaussianBlur in="SourceAlpha" result="shadowBlurInner1" stdDeviation=".5"/><feOffset dx="0" dy="1" in="shadowBlurInner1" result="shadowOffsetInner1"/><feComposite in="shadowOffsetInner1" in2="SourceAlpha" k2="-1" k3="1" operator="arithmetic" result="shadowInnerInner1"/><feColorMatrix in="shadowInnerInner1" type="matrix" values="0 0 0 0 1 0 0 0 0 1 0 0 0 0 1 0 0 0 1 0"/></filter><linearGradient id="linearGradient-9" x1="50%" x2="50%" y1="0%" y2="100%"><stop offset="0%" stop-color="#7586DB"/><stop offset="100%" stop-color="#697ACD"/></linearGradient></defs><g id="Page-1" fill="none" fill-rule="evenodd" stroke="none" stroke-width="1"><g id="Desktop-HD-Copy-3" transform="translate(-235.000000, -451.000000)"><g id="Group-2-Copy-2" transform="translate(95.000000, 213.000000)"><g id="Group" transform="translate(144.000000, 240.000000)"><g id="Oval-2"><use fill="#000" fill-opacity="1" filter="url(#filter-3)" xlink:href="#path-2"/><use fill="url(#linearGradient-1)" fill-rule="evenodd" xlink:href="#path-2"/><use fill="#000" fill-opacity="1" filter="url(#filter-4)" xlink:href="#path-2"/><circle cx="24" cy="24" r="24.75" stroke="#FFF" stroke-width="1.5"/><circle cx="24" cy="24" r="24.25" stroke="#232A50" stroke-opacity=".595" stroke-width=".5"/></g><g id="Oval-2"><use fill="#000" fill-opacity="1" filter="url(#filter-7)" xlink:href="#path-6"/><use fill="url(#linearGradient-5)" fill-rule="evenodd" xlink:href="#path-6"/><use fill="#000" fill-opacity="1" filter="url(#filter-8)" xlink:href="#path-6"/><circle cx="24" cy="24" r="22.75" stroke="#272E50" stroke-opacity=".178" stroke-width=".5"/></g><path id="Fill-6" fill="url(#linearGradient-9)" d="M27.6874976,15.75 C26.654066,15.75 25.6917911,16.0185635 24.8750048,16.4755306 C23.3764568,17.3138212 22.3749952,18.7958597 22.3749952,20.4861301 L22.3749952,27.5138699 C22.3749952,28.7795617 21.115753,29.8055503 19.5625024,29.8055503 C18.0091796,29.8055503 16.7500096,28.7795617 16.7500096,27.5138699 C16.7500096,26.613131 17.3893372,25.8360187 18.3170441,25.4614693 C18.3840151,25.4344436 18.4518521,25.4088997 18.5217098,25.3862489 C19.1056131,25.1572714 19.6065964,24.7269066 19.7925708,24.2272487 C20.0670942,23.4897929 19.5559352,22.8919817 18.6508887,22.8919817 C18.4253668,22.8919817 18.1965974,22.929239 17.9759828,22.9964857 C17.9749003,22.996768 17.97389,22.9970502 17.9728075,22.9973325 C16.6644917,23.3646844 15.572244,24.1701631 14.9166789,25.2222601 C14.4930585,25.9019247 14.25,26.6827062 14.25,27.5138699 C14.25,30.1254132 16.6331712,32.25 19.5625024,32.25 C20.5958618,32.25 21.5581368,31.981366 22.3749952,31.5244694 C23.873471,30.6861788 24.8750048,29.2040698 24.8750048,27.5138699 L24.8750048,20.4861301 C24.8750048,19.2204383 26.1341748,18.1944497 27.6874976,18.1944497 C29.2407482,18.1944497 30.4999904,19.2204383 30.4999904,20.4861301 C30.4999904,21.4253965 29.8064654,22.2326393 28.8138803,22.5865842 C28.1734703,22.796298 27.6486717,23.2495253 27.4488413,23.78637 C27.1755448,24.5205093 27.6843944,25.1155686 28.5853274,25.1155686 C28.7894879,25.1155686 28.9955247,25.081416 29.1965098,25.0256005 C29.229418,25.0168507 29.261821,25.0069719 29.2945126,24.9976575 C30.5950343,24.6281181 31.6806427,23.8251092 32.333249,22.7778104 C32.7568693,22.0980753 33,21.3172938 33,20.4861301 C33,17.8745868 30.6168288,15.75 27.6874976,15.75"/></g></g></g></g></svg>