<svg xmlns="http://www.w3.org/2000/svg" xmlns:xlink="http://www.w3.org/1999/xlink" width="10" height="12" version="1.1" viewBox="0 0 10 12"><title>Group 6</title><desc>Created with Sketch.</desc><g id="汇总" fill="none" fill-rule="evenodd" stroke="none" stroke-width="1"><g id="Artboard" transform="translate(-855.000000, -1162.000000)"><g id="树--图标" transform="translate(785.000000, 1160.000000)"><g id="文件夹" transform="translate(67.000000, 0.000000)"><g id="Group-6" transform="translate(3.000000, 2.000000)"><path id="Rectangle" stroke="#000" d="M0.6,0.5 C0.544771525,0.5 0.5,0.544771525 0.5,0.6 L0.5,11.4 C0.5,11.4552285 0.544771525,11.5 0.6,11.5 L9.4,11.5 C9.45522847,11.5 9.5,11.4552285 9.5,11.4 L9.5,0.6 C9.5,0.544771525 9.45522847,0.5 9.4,0.5 L0.6,0.5 Z"/><rect id="Rectangle-12" width="1" height="1" x="1" y="2" fill="#000"/><rect id="Rectangle-12-Copy" width="1" height="1" x="1" y="4" fill="#000"/><rect id="Rectangle-12-Copy-2" width="1" height="1" x="1" y="6" fill="#000"/><rect id="Rectangle-12-Copy-3" width="1" height="1" x="1" y="8" fill="#000"/><rect id="Rectangle-12-Copy-4" width="1" height="1" x="1" y="10" fill="#000"/><rect id="Rectangle-7" width="1" height="10" x="2" y="1" fill="#000"/></g></g></g></g></g></svg>