<svg xmlns="http://www.w3.org/2000/svg" xmlns:xlink="http://www.w3.org/1999/xlink" width="12" height="13" version="1.1" viewBox="0 0 12 13"><title>Group 3</title><desc>Created with Sketch.</desc><g id="手绘图标" fill="none" fill-rule="evenodd" stroke="none" stroke-width="1"><g id="Artboard" fill="#000" fill-rule="nonzero" transform="translate(-427.000000, -67.000000)"><g id="Upload-Copy" transform="translate(413.000000, 63.000000)"><g id="Group-3" transform="translate(14.000000, 4.000000)"><polygon id="Path-6" fill-opacity=".9" points="11 12 11 6 12 6 12 13 0 13 0 6 1 6 1 12"/><polygon id="Line" points="0 6 0 5 3 5 3 6"/><polygon id="Line-Copy" points="9 6 9 5 12 5 12 6"/><polygon id="Path-7" fill-opacity=".9" points="6.5 8.5 5.5 8.5 5.5 1 6.5 1"/><polygon id="Path-8" fill-opacity=".9" points="6 1.707 3.354 4.354 2.646 3.646 6 .293 9.354 3.646 8.646 4.354"/></g></g></g></g></svg>