<svg xmlns="http://www.w3.org/2000/svg" xmlns:xlink="http://www.w3.org/1999/xlink" width="12" height="12" version="1.1" viewBox="0 0 12 12"><title>Group 6</title><desc>Created with Sketch.</desc><g id="手绘图标" fill="none" fill-rule="evenodd" stroke="none" stroke-width="1"><g id="Artboard" fill="#000" fill-rule="nonzero" transform="translate(-474.000000, -68.000000)"><g id="Upload-Copy-2" transform="translate(460.000000, 63.000000)"><g id="Icon-Upload" transform="translate(12.000000, 3.000000)"><g id="Group-6" transform="translate(2.000000, 2.000000)"><polygon id="Path-6" fill-opacity=".9" points="11 11 11 3 12 3 12 12 0 12 0 3 1 3 1 11"/><polygon id="Line" points="0 3 0 2 3 2 3 3"/><polygon id="Line-Copy" points="9 3 9 2 12 2 12 3"/><polygon id="Path-7" fill-opacity=".9" points="6.5 8 5.5 8 5.5 .5 6.5 .5" transform="translate(6.000000, 4.250000) scale(1, -1) translate(-6.000000, -4.250000)"/><polygon id="Path-8" fill-opacity=".9" points="6 6.061 3.354 8.707 2.646 8 6 4.646 9.354 8 8.646 8.707" transform="translate(6.000000, 6.676777) scale(1, -1) translate(-6.000000, -6.676777)"/></g></g></g></g></g></svg>